<svg xmlns="http://www.w3.org/2000/svg" width="850" height="520" viewBox="0 0 850 520">
<rect width="100%" height="100%" fill="white"/>
<text x="425" y="30" text-anchor="middle" font-family="Arial" font-size="24">Elbow Method</text>
<line x1="90" y1="450" x2="800" y2="450" stroke="#222"/>
<line x1="90" y1="55" x2="90" y2="450" stroke="#222"/>
<line x1="90.0" y1="450" x2="90.0" y2="456" stroke="#222"/><text x="90.0" y="474" text-anchor="middle" font-family="Arial" font-size="13">1</text>
<line x1="208.3" y1="450" x2="208.3" y2="456" stroke="#222"/><text x="208.3" y="474" text-anchor="middle" font-family="Arial" font-size="13">2</text>
<line x1="326.7" y1="450" x2="326.7" y2="456" stroke="#222"/><text x="326.7" y="474" text-anchor="middle" font-family="Arial" font-size="13">3</text>
<line x1="445.0" y1="450" x2="445.0" y2="456" stroke="#222"/><text x="445.0" y="474" text-anchor="middle" font-family="Arial" font-size="13">4</text>
<line x1="563.3" y1="450" x2="563.3" y2="456" stroke="#222"/><text x="563.3" y="474" text-anchor="middle" font-family="Arial" font-size="13">5</text>
<line x1="681.7" y1="450" x2="681.7" y2="456" stroke="#222"/><text x="681.7" y="474" text-anchor="middle" font-family="Arial" font-size="13">6</text>
<line x1="800.0" y1="450" x2="800.0" y2="456" stroke="#222"/><text x="800.0" y="474" text-anchor="middle" font-family="Arial" font-size="13">7</text>
<line x1="84" y1="436.8" x2="90" y2="436.8" stroke="#222"/><text x="78" y="441.8" text-anchor="end" font-family="Arial" font-size="13">1000</text>
<line x1="84" y1="384.2" x2="90" y2="384.2" stroke="#222"/><text x="78" y="389.2" text-anchor="end" font-family="Arial" font-size="13">1200</text>
<line x1="84" y1="331.5" x2="90" y2="331.5" stroke="#222"/><text x="78" y="336.5" text-anchor="end" font-family="Arial" font-size="13">1400</text>
<line x1="84" y1="278.8" x2="90" y2="278.8" stroke="#222"/><text x="78" y="283.8" text-anchor="end" font-family="Arial" font-size="13">1600</text>
<line x1="84" y1="226.2" x2="90" y2="226.2" stroke="#222"/><text x="78" y="231.2" text-anchor="end" font-family="Arial" font-size="13">1800</text>
<line x1="84" y1="173.5" x2="90" y2="173.5" stroke="#222"/><text x="78" y="178.5" text-anchor="end" font-family="Arial" font-size="13">2000</text>
<line x1="84" y1="120.8" x2="90" y2="120.8" stroke="#222"/><text x="78" y="125.8" text-anchor="end" font-family="Arial" font-size="13">2200</text>
<line x1="84" y1="68.2" x2="90" y2="68.2" stroke="#222"/><text x="78" y="73.2" text-anchor="end" font-family="Arial" font-size="13">2400</text>
<polyline points="90.0,68.2 208.3,286.7 326.7,342.0 445.0,373.6 563.3,398.6 681.7,421.0 800.0,436.8" fill="none" stroke="#4C78A8" stroke-width="2.5"/>
<circle cx="90.0" cy="68.2" r="5" fill="#4C78A8"/><circle cx="208.3" cy="286.7" r="5" fill="#4C78A8"/><circle cx="326.7" cy="342.0" r="5" fill="#4C78A8"/><circle cx="445.0" cy="373.6" r="5" fill="#4C78A8"/><circle cx="563.3" cy="398.6" r="5" fill="#4C78A8"/><circle cx="681.7" cy="421.0" r="5" fill="#4C78A8"/><circle cx="800.0" cy="436.8" r="5" fill="#4C78A8"/>
<text x="445" y="505" text-anchor="middle" font-family="Arial" font-size="16">Number of Clusters</text>
<text x="25" y="255" transform="rotate(-90 25 255)" text-anchor="middle" font-family="Arial" font-size="16">Within-Cluster Sum of Squares</text>
</svg>